<?xml version="1.0" standalone="no"?><!DOCTYPE svg PUBLIC "-//W3C//DTD SVG 1.1//EN" "http://www.w3.org/Graphics/SVG/1.1/DTD/svg11.dtd"><svg t="1624273518789" class="icon" viewBox="0 0 1024 1024" version="1.1" xmlns="http://www.w3.org/2000/svg" p-id="3887" xmlns:xlink="http://www.w3.org/1999/xlink" width="200" height="200"><defs><style type="text/css"></style></defs><path d="M541.226667 160.938667l320 301.162666a42.666667 42.666667 0 0 1 13.44 31.082667v408.234667a42.666667 42.666667 0 0 1-42.666667 42.666666H192a42.666667 42.666667 0 0 1-42.666667-42.666666V493.184a42.666667 42.666667 0 0 1 13.44-31.082667l320-301.162666a42.666667 42.666667 0 0 1 58.453334 0z m-205.312 526.464c53.76 31.296 112.661333 46.997333 176.085333 46.997333s122.325333-15.701333 176.106667-46.997333a32 32 0 0 0-32.213334-55.317334c-43.946667 25.6-91.712 38.314667-143.893333 38.314667-52.181333 0-99.946667-12.736-143.893333-38.314667a32 32 0 1 0-32.213334 55.317334z" p-id="3888"></path></svg>