<?xml version="1.0" standalone="no"?><!DOCTYPE svg PUBLIC "-//W3C//DTD SVG 1.1//EN" "http://www.w3.org/Graphics/SVG/1.1/DTD/svg11.dtd"><svg t="1624278026061" class="icon" viewBox="0 0 1024 1024" version="1.1" xmlns="http://www.w3.org/2000/svg" p-id="15249" xmlns:xlink="http://www.w3.org/1999/xlink" width="200" height="200"><defs><style type="text/css"></style></defs><path d="M306.29 637.21H687.9c168 0 304.1 136.15 304.1 304.1a29.82 29.82 0 0 1-29.82 29.82H61.82A29.82 29.82 0 0 1 32 941.31V911.5C32 760 154.81 637.21 306.29 637.21z m205.41-41.74c-149.67 0-271-121.46-271-271.31s121.35-271.29 271-271.29 271 121.46 271 271.31-121.3 271.32-271 271.32z" fill="#F24957" p-id="15250"></path><path d="M516.05 480.94c-35.72 0-69.8-12.17-98.56-35.21-13.92-11.17-17-32.59-6.82-47.76a30.77 30.77 0 0 1 25.52-14.19 29.67 29.67 0 0 1 18.71 6.7 98 98 0 0 0 121.87 0.31 29.62 29.62 0 0 1 18.61-6.63 31 31 0 0 1 25.62 14.3c10.07 15.25 6.92 36.66-7 47.73-28.63 22.74-62.5 34.75-97.95 34.75z" fill="#FFFFFF" p-id="15251"></path></svg>